<svg clip-rule="evenodd" fill-rule="evenodd" stroke-linejoin="round" stroke-miterlimit="2" viewBox="0 0 20 20" xmlns="http://www.w3.org/2000/svg"><path d="m10 20c-1.367 0-2.658-.262-3.875-.788-1.217-.524-2.279-1.241-3.188-2.149-.908-.909-1.624-1.971-2.149-3.188s-.788-2.508-.788-3.875c0-1.383.263-2.679.788-3.887.525-1.209 1.241-2.267 2.15-3.175.908-.909 1.97-1.625 3.187-2.15s2.508-.788 3.875-.788c1.383 0 2.679.263 3.888.788 1.208.525 2.266 1.241 3.175 2.15.908.908 1.625 1.966 2.15 3.175.525 1.208.787 2.504.787 3.887 0 1.367-.262 2.658-.787 3.875s-1.242 2.279-2.15 3.188c-.909.908-1.967 1.625-3.175 2.149-1.209.526-2.505.788-3.888.788zm0-2.05c.433-.6.808-1.225 1.125-1.875s.575-1.342.775-2.075h-3.8c.2.733.458 1.425.775 2.075s.692 1.275 1.125 1.875zm-2.6-.4c-.3-.55-.562-1.121-.787-1.713-.225-.591-.413-1.204-.563-1.837h-2.95c.483.833 1.088 1.558 1.813 2.175s1.554 1.075 2.487 1.375zm5.2 0c.933-.3 1.763-.758 2.488-1.375s1.329-1.342 1.812-2.175h-2.95c-.15.633-.337 1.246-.562 1.837-.225.592-.488 1.163-.788 1.713zm-10.35-5.55h3.4c-.05-.333-.088-.663-.112-.988-.026-.325-.038-.662-.038-1.012s.013-.688.038-1.013c.024-.325.062-.654.112-.987h-3.4c-.083.333-.146.662-.188.987-.041.325-.062.663-.062 1.013s.021.688.062 1.012c.042.325.105.655.188.988zm5.4 0h4.7c.05-.333.087-.663.112-.988s.038-.662.038-1.012-.013-.688-.038-1.013-.062-.654-.112-.987h-4.7c-.05.333-.088.662-.113.987-.024.325-.037.663-.037 1.013s.013.688.037 1.012c.025.325.063.655.113.988zm6.7 0h3.4c.083-.333.146-.663.188-.988.041-.325.062-.662.062-1.012s-.021-.688-.063-1.013c-.041-.325-.104-.654-.187-.987h-3.4c.05.333.088.662.113.987s.037.663.037 1.013-.012.688-.037 1.012c-.025.325-.063.655-.113.988zm-.4-6h2.95c-.483-.833-1.087-1.558-1.812-2.175s-1.555-1.075-2.488-1.375c.3.55.563 1.121.788 1.712.225.592.412 1.205.562 1.838zm-5.85 0h3.8c-.2-.733-.458-1.425-.775-2.075s-.692-1.275-1.125-1.875c-.433.6-.808 1.225-1.125 1.875s-.575 1.342-.775 2.075zm-5 0h2.95c.15-.633.338-1.246.563-1.838.225-.591.487-1.162.787-1.712-.933.3-1.762.758-2.487 1.375s-1.33 1.342-1.813 2.175z" fill="#3f4dff" fill-rule="nonzero"/></svg>