<?xml version="1.0" encoding="UTF-8" standalone="no"?>
<!DOCTYPE svg PUBLIC "-//W3C//DTD SVG 1.1//EN" "http://www.w3.org/Graphics/SVG/1.1/DTD/svg11.dtd">
<svg width="100%" height="100%" viewBox="0 0 493 188" version="1.1" xmlns="http://www.w3.org/2000/svg" xmlns:xlink="http://www.w3.org/1999/xlink" xml:space="preserve" xmlns:serif="http://www.serif.com/" style="fill-rule:evenodd;clip-rule:evenodd;stroke-linejoin:round;stroke-miterlimit:2;">
    <g transform="matrix(1,0,0,1,-111.798,-1026.67)">
        <g transform="matrix(1,0,0,1,0,1.425)">
            <g transform="matrix(1.05778,0,0,0.781553,-20.0841,253.793)">
                <path d="M134.889,1088.74C132.616,1088.74 130.871,1087.88 129.655,1086.17C128.438,1084.45 127.83,1082.04 127.83,1078.94L127.83,1009.82C127.83,1006.66 128.438,1004.24 129.655,1002.55C130.871,1000.87 132.616,1000.02 134.889,1000.02C137.163,1000.02 138.903,1000.87 140.11,1002.55C141.317,1004.24 141.92,1006.66 141.92,1009.82L141.92,1035.89L171.653,1035.89L171.653,1009.82C171.653,1006.66 172.261,1004.24 173.477,1002.55C174.693,1000.87 176.438,1000.02 178.712,1000.02C180.985,1000.02 182.726,1000.87 183.932,1002.55C185.139,1004.24 185.743,1006.66 185.743,1009.82L185.743,1078.94C185.743,1082.04 185.139,1084.45 183.932,1086.17C182.726,1087.88 180.985,1088.74 178.712,1088.74C176.438,1088.74 174.693,1087.88 173.477,1086.17C172.261,1084.45 171.653,1082.04 171.653,1078.94L171.653,1051.68L141.92,1051.68L141.92,1078.94C141.92,1082.04 141.332,1084.45 140.155,1086.17C138.979,1087.88 137.224,1088.74 134.889,1088.74Z" style="fill:rgb(242,242,242);fill-rule:nonzero;"/>
                <path d="M201.692,1088.65C199.497,1088.65 197.812,1087.78 196.635,1086.02C195.459,1084.26 194.871,1081.78 194.871,1078.57L194.871,1036.53C194.871,1033.26 195.459,1030.77 196.635,1029.04C197.812,1027.31 199.497,1026.45 201.692,1026.45C203.886,1026.45 205.581,1027.31 206.779,1029.04C207.976,1030.77 208.575,1033.26 208.575,1036.53L208.575,1078.57C208.575,1081.78 207.991,1084.26 206.824,1086.02C205.657,1087.78 203.946,1088.65 201.692,1088.65ZM201.692,1016.37C199.195,1016.37 197.266,1015.56 195.907,1013.93C194.547,1012.31 193.867,1010.02 193.867,1007.07C193.867,1004.07 194.547,1001.76 195.907,1000.17C197.266,998.568 199.195,997.77 201.692,997.77C204.23,997.77 206.169,998.568 207.508,1000.17C208.847,1001.76 209.516,1004.07 209.516,1007.07C209.516,1010.02 208.847,1012.31 207.508,1013.93C206.169,1015.56 204.23,1016.37 201.692,1016.37Z" style="fill:rgb(242,242,242);fill-rule:nonzero;"/>
                <path d="M243.733,1088.81C238.218,1088.81 233.355,1087.39 229.142,1084.55C224.929,1081.71 221.635,1077.41 219.261,1071.67C216.886,1065.92 215.699,1058.65 215.699,1049.85C215.699,1042.78 216.458,1036.21 217.976,1030.16C219.494,1024.11 221.689,1018.83 224.561,1014.33C227.434,1009.82 230.937,1006.3 235.072,1003.76C239.207,1001.22 243.873,999.954 249.07,999.954C252.803,999.954 256.309,1000.69 259.59,1002.15C262.871,1003.61 265.722,1005.72 268.142,1008.46C268.934,1009.29 269.429,1010.25 269.627,1011.35C269.824,1012.45 269.796,1013.51 269.544,1014.53C269.291,1015.55 268.891,1016.43 268.344,1017.15C267.797,1017.87 267.151,1018.27 266.406,1018.36C265.661,1018.45 264.898,1018.11 264.117,1017.34C261.758,1014.78 259.335,1012.96 256.848,1011.89C254.362,1010.82 251.661,1010.28 248.744,1010.28C243.714,1010.28 239.401,1011.99 235.804,1015.39C232.208,1018.8 229.451,1023.47 227.534,1029.39C225.617,1035.32 224.658,1042.06 224.658,1049.61C224.658,1056.44 225.438,1061.99 226.998,1066.25C228.557,1070.51 230.819,1073.61 233.784,1075.56C236.75,1077.51 240.317,1078.48 244.487,1078.48C247.146,1078.48 249.647,1077.97 251.989,1076.97C254.332,1075.96 256.679,1074.28 259.031,1071.93C259.918,1071.11 260.744,1070.76 261.507,1070.86C262.27,1070.96 262.916,1071.37 263.445,1072.06C263.975,1072.76 264.333,1073.61 264.519,1074.61C264.706,1075.61 264.665,1076.63 264.395,1077.68C264.126,1078.73 263.583,1079.64 262.767,1080.42C260.006,1083.27 256.992,1085.38 253.727,1086.75C250.461,1088.12 247.129,1088.81 243.733,1088.81Z" style="fill:rgb(242,242,242);fill-rule:nonzero;"/>
                <path d="M276.496,1088.56C275.212,1088.56 274.273,1087.98 273.679,1086.82C273.086,1085.66 272.903,1084.06 273.131,1082.01L278.932,1032.54C279.16,1030.67 279.669,1029.28 280.461,1028.36C281.253,1027.44 282.326,1026.98 283.681,1026.98C284.965,1026.98 285.904,1027.55 286.497,1028.69C287.091,1029.83 287.274,1031.44 287.046,1033.54L281.245,1083.01C281.041,1084.84 280.553,1086.23 279.779,1087.16C279.005,1088.1 277.911,1088.56 276.496,1088.56ZM285.357,1013.97C283.795,1013.97 282.621,1013.45 281.833,1012.4C281.046,1011.35 280.705,1009.88 280.812,1008C280.955,1005.68 281.556,1003.92 282.614,1002.73C283.672,1001.53 285.098,1000.93 286.89,1000.93C288.452,1000.93 289.635,1001.45 290.441,1002.48C291.246,1003.51 291.578,1004.99 291.435,1006.9C291.292,1009.19 290.7,1010.94 289.659,1012.15C288.619,1013.36 287.184,1013.97 285.357,1013.97Z" style="fill:rgb(242,242,242);fill-rule:nonzero;"/>
                <path d="M306.546,1088.81C303.947,1088.81 301.54,1088.02 299.326,1086.44C297.112,1084.86 295.331,1082.71 293.982,1080C292.633,1077.28 291.958,1074.18 291.958,1070.71C291.958,1066.49 292.829,1063.07 294.572,1060.46C296.314,1057.85 299.031,1055.92 302.721,1054.68C306.412,1053.43 311.144,1052.81 316.916,1052.81L324.215,1052.81L323.402,1059.9L317.834,1059.9C313.421,1059.9 309.932,1060.2 307.368,1060.81C304.804,1061.42 302.976,1062.46 301.882,1063.94C300.789,1065.42 300.242,1067.45 300.242,1070.03C300.242,1073.47 301.09,1076.1 302.784,1077.92C304.479,1079.75 306.466,1080.66 308.747,1080.66C310.881,1080.66 312.865,1080.01 314.698,1078.72C316.531,1077.43 318.092,1075.57 319.379,1073.13C320.667,1070.69 321.499,1067.77 321.875,1064.36L323.636,1049.49C324.195,1044.94 323.744,1041.47 322.283,1039.09C320.823,1036.71 318.225,1035.52 314.49,1035.52C312.32,1035.52 310.242,1035.81 308.255,1036.39C306.267,1036.97 304.288,1038.01 302.316,1039.51C301.438,1040.1 300.639,1040.32 299.918,1040.17C299.196,1040.03 298.604,1039.64 298.141,1038.99C297.678,1038.35 297.416,1037.58 297.355,1036.68C297.295,1035.78 297.471,1034.87 297.885,1033.96C298.299,1033.05 299.01,1032.25 300.018,1031.56C302.386,1029.87 304.915,1028.64 307.606,1027.88C310.297,1027.12 312.902,1026.74 315.421,1026.74C319.706,1026.74 323.104,1027.82 325.616,1029.97C328.128,1032.13 329.843,1035.13 330.761,1038.97C331.68,1042.82 331.836,1047.29 331.231,1052.4L327.647,1083.01C327.479,1084.84 327.009,1086.23 326.235,1087.16C325.461,1088.1 324.432,1088.56 323.148,1088.56C321.935,1088.56 321.039,1088.02 320.458,1086.94C319.877,1085.86 319.688,1084.31 319.891,1082.3L320.984,1072.85L321.73,1074.3C320.909,1077.6 319.702,1080.32 318.109,1082.47C316.517,1084.63 314.718,1086.22 312.713,1087.26C310.708,1088.29 308.652,1088.81 306.546,1088.81Z" style="fill:rgb(242,242,242);fill-rule:nonzero;"/>
                <path d="M358.645,1088.81C354.611,1088.81 351.129,1087.74 348.199,1085.59C345.269,1083.45 343.022,1080.39 341.457,1076.41C339.892,1072.43 339.11,1067.73 339.11,1062.31C339.11,1057.18 339.677,1052.45 340.812,1048.12C341.946,1043.8 343.567,1040.03 345.675,1036.82C347.783,1033.61 350.269,1031.13 353.135,1029.37C356,1027.62 359.182,1026.74 362.681,1026.74C366.74,1026.74 370.228,1027.81 373.145,1029.95C376.062,1032.1 378.304,1035.15 379.869,1039.1C381.434,1043.05 382.216,1047.76 382.216,1053.23C382.216,1058.37 381.649,1063.1 380.515,1067.42C379.38,1071.74 377.759,1075.51 375.651,1078.72C373.544,1081.93 371.057,1084.42 368.192,1086.17C365.326,1087.93 362.144,1088.81 358.645,1088.81ZM358.881,1079.96C362.11,1079.96 364.833,1078.74 367.048,1076.31C369.264,1073.88 370.954,1070.6 372.119,1066.48C373.284,1062.36 373.867,1057.81 373.867,1052.84C373.867,1047.2 372.856,1042.92 370.834,1039.99C368.813,1037.05 366.016,1035.59 362.446,1035.59C359.252,1035.59 356.539,1036.8 354.305,1039.24C352.071,1041.67 350.371,1044.92 349.207,1049C348.042,1053.08 347.46,1057.65 347.46,1062.71C347.46,1068.31 348.47,1072.58 350.492,1075.53C352.514,1078.48 355.31,1079.96 358.881,1079.96Z" style="fill:rgb(242,242,242);fill-rule:nonzero;"/>
                <path d="M396.673,1003.05L389.231,1001.7L389.231,996.415L412.011,996.415L412.011,1001.7L404.115,1003.05L404.115,1037.56L438.784,1037.56L438.784,1003.05L431.251,1001.7L431.251,996.415L453.759,996.415L453.759,1001.7L446.317,1003.05L446.317,1081.29L453.759,1082.4L453.759,1087.68L431.161,1087.68L431.161,1082.4L438.784,1081.29L438.784,1044.07L404.115,1044.07L404.115,1081.29L412.102,1082.4L412.102,1087.68L388.959,1087.68L388.959,1082.4L396.673,1081.29L396.673,1003.05Z" style="fill:rgb(242,242,242);fill-rule:nonzero;"/>
                <path d="M462.925,1053.16C462.925,1046.04 464.029,1039.77 466.238,1034.37C468.446,1028.96 471.35,1024.83 474.95,1021.96C478.55,1019.1 482.317,1017.67 486.25,1017.67C493.873,1017.67 499.515,1021.02 503.175,1027.74C506.836,1034.45 508.666,1043.05 508.666,1053.53C508.666,1060.66 507.562,1066.92 505.354,1072.33C503.145,1077.73 500.241,1081.87 496.641,1084.73C493.041,1087.6 489.275,1089.03 485.342,1089.03C477.718,1089.03 472.076,1085.67 468.416,1078.96C464.755,1072.24 462.925,1063.64 462.925,1053.16ZM485.796,1082.64C490.455,1082.64 494.055,1080.23 496.596,1075.4C499.137,1070.56 500.407,1063.52 500.407,1054.27C500.407,1045.42 499.228,1038.18 496.868,1032.53C494.508,1026.88 490.848,1024.05 485.886,1024.05C481.228,1024.05 477.613,1026.47 475.041,1031.3C472.47,1036.13 471.184,1043.17 471.184,1052.43C471.184,1061.35 472.379,1068.62 474.769,1074.23C477.159,1079.84 480.834,1082.64 485.796,1082.64Z" style="fill:rgb(242,242,242);fill-rule:nonzero;"/>
                <path d="M524.367,994.818L516.653,993.712L516.653,989.167L529.903,987.079L529.994,987.079L531.718,988.676L531.718,1081.54L540.249,1082.4L540.249,1087.68L516.38,1087.68L516.38,1082.4L524.367,1081.41L524.367,994.818Z" style="fill:rgb(242,242,242);fill-rule:nonzero;"/>
                <path d="M547.328,1069.75C547.328,1061.8 550.232,1056.05 556.041,1052.49C561.849,1048.92 569.079,1047.02 577.731,1046.78L577.731,1042.97C577.731,1038.79 577.414,1035.5 576.779,1033.08C576.143,1030.66 575.039,1028.9 573.466,1027.8C571.893,1026.69 569.684,1026.14 566.841,1026.14C563.755,1026.14 560.957,1026.78 558.446,1028.04C555.935,1029.31 553.5,1030.85 551.14,1032.65L549.143,1027.25C549.809,1026.43 551.2,1025.28 553.318,1023.81C555.436,1022.33 557.856,1021.02 560.579,1019.88C563.301,1018.73 565.933,1018.16 568.474,1018.16C572.589,1018.16 575.841,1018.93 578.231,1020.49C580.621,1022.05 582.345,1024.54 583.404,1027.98C584.463,1031.42 584.992,1036.05 584.992,1041.86L584.992,1082.4L590.619,1082.4L590.619,1086.94C587.291,1088.17 584.478,1088.79 582.178,1088.79C580.726,1088.79 579.728,1088.48 579.184,1087.86C578.639,1087.25 578.367,1085.84 578.367,1083.63L578.367,1079.08C576.189,1081.7 573.814,1084.02 571.242,1086.02C568.671,1088.03 565.752,1089.03 562.484,1089.03C558.128,1089.03 554.513,1087.39 551.639,1084.12C548.765,1080.84 547.328,1076.05 547.328,1069.75ZM565.207,1081.78C566.901,1081.78 568.928,1081.05 571.288,1079.57C573.647,1078.1 575.795,1076.34 577.731,1074.29L577.731,1052.55C570.41,1052.63 564.859,1054.11 561.078,1056.97C557.296,1059.84 555.406,1063.69 555.406,1068.52C555.406,1073.18 556.283,1076.56 558.037,1078.65C559.792,1080.74 562.182,1081.78 565.207,1081.78Z" style="fill:rgb(242,242,242);fill-rule:nonzero;"/>
                <path d="M155.626,1227.22C149.152,1227.22 143.586,1225.25 138.927,1221.32C134.268,1217.39 130.728,1211.86 128.308,1204.74C125.888,1197.61 124.678,1189.3 124.678,1179.8C124.678,1170.88 126.1,1162.89 128.944,1155.85C131.787,1148.81 135.659,1143.34 140.56,1139.45C145.461,1135.56 150.937,1133.62 156.987,1133.62C160.073,1133.62 163.053,1133.95 165.927,1134.6C168.801,1135.26 171.115,1135.87 172.869,1136.44C174.624,1137.02 175.713,1137.38 176.137,1137.55L175.411,1157.57L170.691,1157.57L168.695,1143.32C167.787,1142.26 166.153,1141.36 163.794,1140.62C161.434,1139.88 158.56,1139.51 155.172,1139.51C150.997,1139.51 147.246,1141.05 143.918,1144.12C140.591,1147.19 137.974,1151.67 136.068,1157.57C134.162,1163.47 133.209,1170.51 133.209,1178.7C133.209,1186.39 134.041,1193.48 135.705,1199.95C137.369,1206.42 139.895,1211.6 143.283,1215.49C146.671,1219.38 150.846,1221.32 155.807,1221.32C159.256,1221.32 161.948,1220.93 163.885,1220.15C165.821,1219.38 167.454,1218.25 168.785,1216.78L172.416,1205.23L176.863,1206.09L174.594,1222.55C173.142,1222.63 171.387,1223.16 169.33,1224.15C167.152,1225.13 165.064,1225.89 163.068,1226.42C161.071,1226.95 158.59,1227.22 155.626,1227.22Z" style="fill:rgb(242,242,242);fill-rule:nonzero;"/>
                <path d="M193.017,1164.94L191.747,1176.49L186.755,1176.49L186.755,1157.69L224.51,1157.69L226.052,1162.24L197.827,1212.6L191.656,1219.6L218.52,1218.5L222.059,1205.11L226.688,1205.84L224.963,1225.87L185.121,1225.87L183.488,1221.2L212.076,1171.2L217.703,1164.08L193.017,1164.94Z" style="fill:rgb(242,242,242);fill-rule:nonzero;"/>
                <path d="M256.456,1227.22C249.437,1227.22 244.037,1223.96 240.256,1217.45C236.474,1210.94 234.583,1202.28 234.583,1191.47C234.583,1184.51 235.582,1178.33 237.578,1172.92C239.575,1167.52 242.343,1163.32 245.883,1160.33C249.422,1157.35 253.4,1155.85 257.817,1155.85C263.202,1155.85 267.392,1157.94 270.387,1162.12C273.382,1166.29 275,1172.31 275.242,1180.17C275.242,1185.25 275.061,1188.85 274.698,1190.98L242.388,1190.98C242.388,1199.58 243.825,1206.6 246.699,1212.05C249.573,1217.49 253.612,1220.21 258.815,1220.21C261.356,1220.21 263.958,1219.6 266.62,1218.37C269.282,1217.14 271.34,1215.67 272.792,1213.95L274.244,1218.5C272.489,1220.95 269.933,1223.02 266.575,1224.7C263.217,1226.38 259.844,1227.22 256.456,1227.22ZM267.074,1185.21C267.256,1183.49 267.346,1181.69 267.346,1179.8C267.286,1174.4 266.333,1170.1 264.487,1166.91C262.642,1163.71 259.814,1162.12 256.002,1162.12C247.713,1162.12 243.205,1169.81 242.479,1185.21L267.074,1185.21Z" style="fill:rgb(242,242,242);fill-rule:nonzero;"/>
                <path d="M290.852,1216.16C291.518,1217.55 292.909,1218.78 295.027,1219.85C297.144,1220.91 299.413,1221.44 301.834,1221.44C309.215,1221.44 312.906,1217.76 312.906,1210.39C312.906,1207.03 311.877,1204.31 309.82,1202.22C307.763,1200.13 304.254,1197.82 299.292,1195.28C294.392,1192.9 290.822,1190.08 288.583,1186.81C286.345,1183.53 285.225,1179.15 285.225,1173.66C285.225,1170.14 286.027,1167.07 287.63,1164.45C289.234,1161.83 291.381,1159.8 294.074,1158.37C296.766,1156.94 299.686,1156.22 302.832,1156.22C305.918,1156.22 308.504,1156.59 310.591,1157.33C312.679,1158.06 314.751,1158.96 316.808,1160.03L316.808,1174.64L312.361,1174.64L310.728,1165.68C310.304,1164.61 309.23,1163.71 307.506,1162.98C305.781,1162.24 303.891,1161.87 301.834,1161.87C298.929,1161.87 296.57,1162.75 294.755,1164.51C292.939,1166.27 292.032,1168.63 292.032,1171.57C292.032,1174.19 292.486,1176.36 293.393,1178.08C294.301,1179.8 295.42,1181.17 296.751,1182.2C298.082,1183.22 299.928,1184.39 302.287,1185.7L304.012,1186.68C307.46,1188.48 310.244,1190.18 312.361,1191.78C314.479,1193.38 316.233,1195.46 317.625,1198.04C319.017,1200.62 319.712,1203.84 319.712,1207.69C319.712,1213.75 318.003,1218.52 314.585,1222C311.166,1225.48 306.613,1227.22 300.926,1227.22C298.324,1227.22 295.36,1226.64 292.032,1225.5C288.704,1224.35 286.224,1223.2 284.59,1222.06L284.59,1206.58L289.491,1206.58L290.852,1216.16ZM295.662,1141.6L309.729,1117.9L315.901,1124.65C314.691,1127.11 312.013,1130.77 307.869,1135.64C303.724,1140.52 300.593,1143.61 298.476,1144.92L295.662,1141.6Z" style="fill:rgb(242,242,242);fill-rule:nonzero;"/>
                <path d="M327.427,1192.21C327.427,1185.58 328.38,1179.5 330.286,1173.97C332.191,1168.44 335.035,1164.04 338.817,1160.76C342.598,1157.49 347.211,1155.85 352.657,1155.85C355.016,1155.85 357.316,1156.24 359.554,1157.02C361.793,1157.8 363.729,1158.63 365.363,1159.54L365,1177.1L360.462,1177.1L358.556,1165.31C358.193,1162.85 355.591,1161.62 350.751,1161.62C346.032,1161.62 342.265,1164.08 339.452,1168.99C336.638,1173.91 335.232,1180.62 335.232,1189.14C335.232,1199.29 336.744,1206.99 339.77,1212.23C342.795,1217.47 346.727,1220.09 351.568,1220.09C354.109,1220.09 356.574,1219.52 358.964,1218.37C361.354,1217.23 363.336,1215.92 364.909,1214.44L366.361,1218.5C364.606,1220.87 362.186,1222.92 359.101,1224.64C356.015,1226.36 352.959,1227.22 349.934,1227.22C345.154,1227.22 341.07,1225.68 337.682,1222.61C334.294,1219.54 331.738,1215.36 330.013,1210.08C328.289,1204.8 327.427,1198.84 327.427,1192.21ZM344.035,1141.6L358.102,1117.9L364.274,1124.65C363.064,1127.11 360.386,1130.77 356.242,1135.64C352.097,1140.52 348.966,1143.61 346.848,1144.92L344.035,1141.6Z" style="fill:rgb(242,242,242);fill-rule:nonzero;"/>
                <path d="M384.014,1226.92C381.741,1226.92 379.996,1226.07 378.78,1224.35C377.563,1222.64 376.955,1220.23 376.955,1217.12L376.955,1148.01C376.955,1144.85 377.563,1142.43 378.78,1140.74C379.996,1139.05 381.741,1138.21 384.014,1138.21C386.288,1138.21 388.028,1139.05 389.235,1140.74C390.442,1142.43 391.045,1144.85 391.045,1148.01L391.045,1174.07L420.778,1174.07L420.778,1148.01C420.778,1144.85 421.386,1142.43 422.602,1140.74C423.818,1139.05 425.563,1138.21 427.837,1138.21C430.11,1138.21 431.851,1139.05 433.057,1140.74C434.264,1142.43 434.868,1144.85 434.868,1148.01L434.868,1217.12C434.868,1220.23 434.264,1222.64 433.057,1224.35C431.851,1226.07 430.11,1226.92 427.837,1226.92C425.563,1226.92 423.818,1226.07 422.602,1224.35C421.386,1222.64 420.778,1220.23 420.778,1217.12L420.778,1189.87L391.045,1189.87L391.045,1217.12C391.045,1220.23 390.457,1222.64 389.28,1224.35C388.104,1226.07 386.349,1226.92 384.014,1226.92Z" style="fill:rgb(242,242,242);fill-rule:nonzero;"/>
                <path d="M459.062,1227.17C455.741,1227.17 452.792,1226.32 450.215,1224.61C447.638,1222.91 445.624,1220.59 444.174,1217.66C442.724,1214.73 441.999,1211.41 441.999,1207.71C441.999,1203.29 442.846,1199.79 444.54,1197.23C446.234,1194.66 448.978,1192.81 452.771,1191.68C456.563,1190.54 461.619,1189.98 467.938,1189.98L472.703,1189.98L472.703,1199.55L467.972,1199.55C464.903,1199.55 462.424,1199.79 460.536,1200.27C458.648,1200.75 457.287,1201.52 456.454,1202.57C455.621,1203.63 455.204,1205.07 455.204,1206.89C455.204,1209.21 455.8,1211.11 456.993,1212.59C458.185,1214.06 459.88,1214.8 462.076,1214.8C463.826,1214.8 465.382,1214.25 466.745,1213.16C468.108,1212.08 469.195,1210.57 470.008,1208.66C470.821,1206.74 471.228,1204.53 471.228,1202.02L471.228,1187.86C471.228,1184.3 470.619,1181.77 469.402,1180.26C468.184,1178.76 466.106,1178 463.169,1178C461.547,1178 459.779,1178.26 457.866,1178.77C455.953,1179.28 453.868,1180.16 451.611,1181.43C450.233,1182.19 449.035,1182.35 448.016,1181.91C446.997,1181.46 446.212,1180.65 445.661,1179.46C445.11,1178.27 444.84,1176.95 444.849,1175.52C444.859,1174.09 445.172,1172.7 445.789,1171.36C446.406,1170.02 447.402,1169.01 448.779,1168.33C451.601,1166.83 454.273,1165.78 456.797,1165.19C459.321,1164.6 461.623,1164.3 463.702,1164.3C468.362,1164.3 472.198,1165.24 475.211,1167.1C478.223,1168.97 480.477,1171.81 481.973,1175.62C483.468,1179.43 484.216,1184.31 484.216,1190.28L484.216,1217.49C484.216,1220.54 483.672,1222.87 482.585,1224.49C481.498,1226.12 479.927,1226.92 477.873,1226.92C475.819,1226.92 474.233,1226.12 473.115,1224.49C471.997,1222.87 471.438,1220.54 471.438,1217.49L471.438,1212.94L472.079,1213.75C471.712,1216.48 470.942,1218.85 469.767,1220.85C468.593,1222.85 467.102,1224.4 465.293,1225.51C463.484,1226.62 461.407,1227.17 459.062,1227.17Z" style="fill:rgb(242,242,242);fill-rule:nonzero;"/>
                <path d="M506.711,1227.17C501.291,1227.17 497.258,1225.14 494.613,1221.09C491.967,1217.03 490.644,1210.99 490.644,1202.97L490.644,1147.56C490.644,1144.51 491.232,1142.19 492.409,1140.6C493.585,1139.01 495.271,1138.21 497.465,1138.21C499.659,1138.21 501.355,1139.01 502.552,1140.6C503.75,1142.19 504.348,1144.51 504.348,1147.56L504.348,1202.27C504.348,1205.65 504.867,1208.14 505.905,1209.74C506.942,1211.34 508.351,1212.13 510.131,1212.13C510.596,1212.13 511.05,1212.09 511.492,1212.01C511.935,1211.93 512.387,1211.87 512.848,1211.81C513.81,1211.7 514.489,1212.1 514.886,1213.02C515.283,1213.94 515.481,1215.82 515.481,1218.65C515.481,1221.09 515.122,1222.94 514.404,1224.23C513.685,1225.52 512.545,1226.34 510.982,1226.69C510.434,1226.77 509.765,1226.87 508.977,1226.99C508.188,1227.11 507.433,1227.17 506.711,1227.17Z" style="fill:rgb(242,242,242);fill-rule:nonzero;"/>
                <path d="M531.669,1227.17C526.249,1227.17 522.216,1225.14 519.57,1221.09C516.925,1217.03 515.602,1210.99 515.602,1202.97L515.602,1147.56C515.602,1144.51 516.19,1142.19 517.367,1140.6C518.543,1139.01 520.229,1138.21 522.423,1138.21C524.617,1138.21 526.313,1139.01 527.51,1140.6C528.707,1142.19 529.306,1144.51 529.306,1147.56L529.306,1202.27C529.306,1205.65 529.825,1208.14 530.862,1209.74C531.9,1211.34 533.309,1212.13 535.089,1212.13C535.554,1212.13 536.008,1212.09 536.45,1212.01C536.893,1211.93 537.345,1211.87 537.806,1211.81C538.767,1211.7 539.447,1212.1 539.844,1213.02C540.241,1213.94 540.439,1215.82 540.439,1218.65C540.439,1221.09 540.08,1222.94 539.362,1224.23C538.643,1225.52 537.502,1226.34 535.94,1226.69C535.391,1226.77 534.723,1226.87 533.935,1226.99C533.146,1227.11 532.391,1227.17 531.669,1227.17Z" style="fill:rgb(242,242,242);fill-rule:nonzero;"/>
                <path d="M555.587,1227.22C552.32,1227.22 549.385,1226.36 546.784,1224.64C544.182,1222.92 542.155,1220.58 540.703,1217.64C539.251,1214.69 538.525,1211.37 538.525,1207.69C538.525,1203.26 539.372,1199.76 541.066,1197.18C542.76,1194.61 545.513,1192.76 549.325,1191.66C553.137,1190.55 558.189,1190 564.481,1190L569.291,1190L569.291,1199.58L564.572,1199.58C561.486,1199.58 558.99,1199.81 557.084,1200.26C555.179,1200.7 553.817,1201.46 553,1202.53C552.184,1203.59 551.775,1205.07 551.775,1206.95C551.775,1209.24 552.365,1211.13 553.545,1212.6C554.725,1214.07 556.434,1214.81 558.673,1214.81C560.427,1214.81 561.985,1214.26 563.347,1213.15C564.708,1212.05 565.782,1210.53 566.568,1208.61C567.355,1206.68 567.748,1204.49 567.748,1202.04L567.748,1187.91C567.748,1184.31 567.143,1181.75 565.933,1180.23C564.723,1178.72 562.666,1177.96 559.762,1177.96C558.128,1177.96 556.358,1178.23 554.453,1178.76C552.547,1179.29 550.444,1180.17 548.145,1181.4C546.814,1182.22 545.634,1182.4 544.606,1181.95C543.577,1181.5 542.79,1180.68 542.246,1179.5C541.701,1178.31 541.429,1177 541.429,1175.57C541.429,1174.13 541.732,1172.74 542.337,1171.39C542.942,1170.04 543.94,1169.04 545.332,1168.38C548.175,1166.82 550.853,1165.76 553.364,1165.19C555.874,1164.61 558.189,1164.33 560.306,1164.33C564.965,1164.33 568.792,1165.25 571.787,1167.09C574.782,1168.93 577.036,1171.76 578.548,1175.57C580.061,1179.37 580.817,1184.27 580.817,1190.24L580.817,1217.51C580.817,1220.54 580.273,1222.88 579.184,1224.51C578.094,1226.15 576.521,1226.97 574.464,1226.97C572.407,1226.97 570.819,1226.15 569.7,1224.51C568.58,1222.88 568.021,1220.54 568.021,1217.51L568.021,1212.97L568.656,1213.7C568.293,1216.49 567.521,1218.88 566.342,1220.89C565.162,1222.9 563.664,1224.45 561.849,1225.56C560.034,1226.66 557.947,1227.22 555.587,1227.22ZM560.942,1158.92C558.763,1158.92 556.767,1158.23 554.952,1156.83C553.137,1155.44 551.715,1153.56 550.686,1151.18C549.658,1148.81 549.143,1146.19 549.143,1143.32C549.143,1140.37 549.658,1137.73 550.686,1135.4C551.715,1133.07 553.137,1131.22 554.952,1129.87C556.767,1128.52 558.763,1127.85 560.942,1127.85C563.18,1127.85 565.192,1128.52 566.977,1129.87C568.762,1131.22 570.168,1133.07 571.197,1135.4C572.226,1137.73 572.74,1140.37 572.74,1143.32C572.74,1146.19 572.226,1148.81 571.197,1151.18C570.168,1153.56 568.762,1155.44 566.977,1156.83C565.192,1158.23 563.18,1158.92 560.942,1158.92ZM560.942,1150.94C562.575,1150.94 563.906,1150.2 564.935,1148.73C565.963,1147.25 566.478,1145.45 566.478,1143.32C566.478,1141.11 565.963,1139.31 564.935,1137.92C563.906,1136.53 562.575,1135.83 560.942,1135.83C559.369,1135.83 558.053,1136.53 556.994,1137.92C555.935,1139.31 555.406,1141.11 555.406,1143.32C555.406,1145.45 555.935,1147.25 556.994,1148.73C558.053,1150.2 559.369,1150.94 560.942,1150.94Z" style="fill:rgb(242,242,242);fill-rule:nonzero;"/>
            </g>
        </g>
    </g>
</svg>
