<?xml version="1.0" encoding="UTF-8" standalone="no"?>
<!DOCTYPE svg PUBLIC "-//W3C//DTD SVG 1.1//EN" "http://www.w3.org/Graphics/SVG/1.1/DTD/svg11.dtd">
<svg width="100%" height="100%" viewBox="0 0 150 47" version="1.1" xmlns="http://www.w3.org/2000/svg" xmlns:xlink="http://www.w3.org/1999/xlink" xml:space="preserve" xmlns:serif="http://www.serif.com/" style="fill-rule:evenodd;clip-rule:evenodd;stroke-linecap:round;stroke-linejoin:round;stroke-miterlimit:1.5;">
    <g transform="matrix(1,0,0,1,-1250.18,-734.787)">
        <g transform="matrix(0.878308,0,0,0.878308,175.906,90.627)">
            <g>
                <g transform="matrix(0.721534,0,0,0.721534,332.877,343.906)">
                    <circle cx="1270.55" cy="576.563" r="35.947" style="fill:none;stroke:rgb(0,57,253);stroke-width:1.58px;"/>
                </g>
                <g transform="matrix(0.762879,0,0,0.717022,372.121,295.782)">
                    <g transform="matrix(-0.462598,-0.0362051,-0.0362051,0.462598,1715.3,374.96)">
                        <path d="M1144.05,689.982L1169.14,668.528" style="fill:none;stroke:rgb(0,57,253);stroke-width:6.6px;stroke-linecap:square;"/>
                    </g>
                    <g transform="matrix(0.462598,-0.0362051,0.0362051,0.462598,585.204,374.96)">
                        <path d="M1144.05,689.982L1169.14,668.528" style="fill:none;stroke:rgb(0,57,253);stroke-width:6.6px;stroke-linecap:square;"/>
                    </g>
                </g>
            </g>
            <g transform="matrix(0.621826,0,0,0.621826,577.878,403.163)">
                <g transform="matrix(32.3678,0,0,32.3678,1313.11,582.085)">
                </g>
                <text x="1144.63px" y="582.085px" style="font-family:'HelveticaNeue', 'Helvetica Neue';font-size:32.368px;fill:rgb(0,57,253);">Back to top</text>
            </g>
        </g>
    </g>
</svg>
